ply
format ascii 1.0
comment Created in Blender version 4.0.2
element vertex 58
property float x
property float y
property float z
property float nx
property float ny
property float nz
property float s
property float t
element face 48
property list uchar uint vertex_indices
end_header
-1.1158324 -0.041856896 -0.3848384 -0.8605904 0.04801617 -0.50702935 0.46313804 0.55708426
-0.8074162 0.76716316 -0.25378105 -0.5535477 0.7684908 -0.32094684 0.61542195 0.63959
-0.58368695 0.53020656 -0.78028065 -0.4031722 0.5293511 -0.7464848 0.52621615 0.7235013
-0.062833235 1.1022704 0.06261985 -0.03806137 0.9991445 -0.016173676 0.4774555 0.1282515
0.90547895 0.53020656 -0.14747876 0.67866534 0.5651036 -0.46911758 0.65394366 0.2805354
0.25356773 0.76716304 -0.681963 0.27654356 0.7071066 -0.65078706 0.4774555 0.30666316
-0.8074162 0.76716316 -0.25378105 -0.5535477 0.7684908 -0.32094684 0.3460564 0.15437925
-0.58368695 0.53020656 -0.78028065 -0.4031722 0.5293511 -0.7464848 0.3460564 0.2805354
0.8110779 0.9258276 0.4339772 0.42083275 0.88933706 0.17882745 0.002095461 0.7548651
1.6850603 -0.041856773 0.80536497 0.9208702 0.15208381 0.35898256 0.15437937 0.7187023
0.90547895 0.53020656 -0.14747876 0.67866534 0.5651036 -0.46911758 0.09130132 0.83877647
-0.49101523 -0.041856993 -0.9983639 -0.31576285 0.004036838 -0.9488296 0.40006 0.72350127
0.99815065 -0.04185689 -0.36556196 0.74321836 0.12376636 -0.6575016 0.6858264 0.3697412
0.38462532 -0.04185696 -0.9903793 0.39109173 -1.01428185e-07 -0.92035174 0.5225445 0.43281925
0.38462532 -0.04185696 -0.9903793 0.39109173 -1.01428185e-07 -0.92035174 0.37393224 0.8387764
0.99815065 -0.04185689 -0.36556196 0.74321836 0.12376636 -0.6575016 0.21745741 0.83877647
-0.5870516 -0.6183382 -0.78651035 -0.40225464 -0.52984405 -0.7466301 0.3108542 0.63959
0.99815065 -0.04185689 -0.36556196 0.74321836 0.12376636 -0.6575016 0.8758079 0.76005316
0.25356773 -0.8508769 -0.6819628 0.19814557 -0.64732736 -0.7360065 0.75101197 0.5631664
0.38462532 -0.04185696 -0.9903793 0.39109173 -1.01428185e-07 -0.92035174 0.9275001 0.5892942
-0.49101523 -0.041856993 -0.9983639 -0.31576285 0.004036838 -0.9488296 0.92089695 0.4554854
-0.5870516 -0.6183382 -0.78651035 -0.40225464 -0.52984405 -0.7466301 0.796101 0.4370103
1.1487738 -0.77151525 -0.21532676 0.69301504 -0.45756295 -0.5571055 0.30666324 0.75486517
-0.8074162 -0.8508768 -0.25378084 -0.48042315 -0.75745547 -0.44210273 0.3108542 0.5209215
1.1487738 -0.77151525 -0.21532676 0.69301504 -0.45756295 -0.5571055 0.75101197 0.74157804
-0.062833235 -1.2892575 0.06262024 -0.14050321 -0.9804931 -0.13744834 0.6196129 0.5892942
0.25356773 -0.8508769 -0.6819628 0.19814557 -0.64732736 -0.7360065 0.16537735 0.002095461
-0.8074162 -0.8508768 -0.25378084 -0.48042315 -0.75745547 -0.44210273 0.033978224 0.15437937
-0.5870516 -0.6183382 -0.78651035 -0.40225464 -0.52984405 -0.7466301 0.002095461 0.06517351
0.95457643 -1.1855897 0.49495536 0.46626702 -0.88098174 0.08041347 0.30666324 0.6361966
0.6719942 -0.8948668 1.3017061 0.15642652 -0.4606723 0.87367713 0.21745741 0.5522854
-1.484721 -0.90772486 0.3992085 -0.81574684 -0.5504272 0.17772754 0.40006006 0.43701023
0.95457643 -1.1855897 0.49495536 0.46626702 -0.88098174 0.08041347 0.3418655 0.15437937
-0.42056787 -0.95656455 0.90447325 -0.32919753 -0.66123414 0.6740909 0.21046638 0.30666322
-0.062833235 -1.2892575 0.06262024 -0.14050321 -0.9804931 -0.13744834 0.21046638 0.12825155
-1.484721 -0.90772486 0.3992085 -0.81574684 -0.5504272 0.17772754 0.033978224 0.28053546
-1.2313643 -0.041856743 0.54197943 -0.8568768 0.16066805 0.48984483 0.002095461 0.3697412
0.36534885 -0.041856647 1.1236037 0.030122578 0.20997822 0.97724193 0.09130132 0.5522853
-1.2313643 -0.041856743 0.54197943 -0.8568768 0.16066805 0.48984483 0.52621615 0.43701023
-0.42056787 -0.95656455 0.90447325 -0.32919753 -0.66123414 0.6740909 0.24358523 0.43701023
-0.5102917 -0.041856613 1.1156191 -0.33659282 0.06899033 0.9391196 0.06517357 0.43701023
-1.2313643 -0.041856743 0.54197943 -0.8568768 0.16066805 0.48984483 0.7417096 0.3251384
-0.3792341 0.76716316 0.8072027 -0.22483702 0.7166956 0.6601482 0.8665055 0.12825155
-1.1737459 0.6225765 0.31248587 -0.7844792 0.5894986 0.19257173 0.86650544 0.30666327
0.45802054 0.5302067 0.9055204 0.1333478 0.56510377 0.81417197 0.0020955205 0.6361966
-1.1737459 0.6225765 0.31248587 -0.7844792 0.5894986 0.19257173 0.6154219 0.5209215
0.36534885 -0.041856647 1.1236037 0.030122578 0.20997822 0.97724193 0.6966205 0.020570576
-0.5102917 -0.041856613 1.1156191 -0.33659282 0.06899033 0.9391196 0.69001734 0.15437937
-0.8074162 0.76716316 -0.25378105 -0.5535477 0.7684908 -0.32094684 0.95941865 0.32513833
0.45802054 0.5302067 0.9055204 0.1333478 0.56510377 0.81417197 0.6858264 0.06517351
-0.3792341 0.76716316 0.8072027 -0.22483702 0.7166956 0.6601482 0.52254456 0.002095461
0.8110779 0.9258276 0.4339772 0.42083275 0.88933706 0.17882745 0.65394366 0.15437931
0.25356773 0.76716304 -0.681963 0.27654356 0.7071066 -0.65078706 0.5523439 0.8387764
0.95457643 -1.1855897 0.49495536 0.46626702 -0.88098174 0.08041347 0.65809876 0.7600532
0.6719942 -0.8948668 1.3017061 0.15642652 -0.4606723 0.87367713 0.3418655 0.28053546
-0.5102917 -0.041856613 1.1156191 -0.33659282 0.06899033 0.9391196 0.16537732 0.4328193
0.45802054 0.5302067 0.9055204 0.1333478 0.56510377 0.81417197 0.82141644 0.002095461
-0.062833235 1.1022704 0.06261985 -0.03806137 0.9991445 -0.016173676 0.99790454 0.15437937
3 0 1 2
3 3 4 5
3 6 5 7
3 8 9 10
3 0 2 11
3 5 12 13
3 2 14 11
3 10 9 15
3 0 11 16
3 17 18 19
3 20 18 21
3 15 9 22
3 0 16 23
3 24 25 18
3 26 27 28
3 22 9 29
3 29 9 30
3 0 23 31
3 32 33 34
3 27 33 35
3 33 36 35
3 30 9 37
3 0 31 38
3 39 37 40
3 41 42 43
3 37 9 44
3 0 38 45
3 46 42 47
3 42 48 43
3 44 9 8
3 0 45 1
3 49 3 50
3 3 51 4
3 6 3 5
3 5 4 12
3 2 52 14
3 17 24 18
3 20 19 18
3 24 53 25
3 26 34 27
3 32 54 33
3 27 34 33
3 33 55 36
3 39 30 37
3 41 47 42
3 46 56 42
3 42 57 48
3 49 51 3
