ply
format ascii 1.0
comment Created in Blender version 4.0.2
element vertex 261
property float x
property float y
property float z
property float nx
property float ny
property float nz
property float s
property float t
element face 280
property list uchar uint vertex_indices
end_header
-0.68946826 1.1682104 1 -0.5129066 0.8432442 -0.16082905 0.70534486 0.7609484
-0.74679595 1.0629548 0.9194981 -0.9628162 0.0045194374 0.27011988 0.6905224 0.73970526
-0.7810843 1 1 -0.96573496 0.23542589 -0.10922789 0.7045266 0.7265656
-0.36260098 0.3300041 1 0.5351857 -0.82894546 -0.16256006 0.76772195 0.22103918
-0.7365824 0.23783141 1.3046974 -0.34789628 -0.5114617 0.78573227 0.81504387 0.2832765
-0.69956756 0.3300041 1 -0.53518575 -0.82894546 -0.16256002 0.7647549 0.2864947
-0.7810843 1 -0.59975624 -0.70622194 0.62139136 -0.3392985 0.40958846 0.7329864
-0.7810843 0.5748985 0 -0.7942148 0.60705334 -0.0266289 0.5236545 0.6547907
-0.7810843 1 0 -0.8072229 0.5622209 -0.17971899 0.525107 0.73350215
-0.28108427 0.5 -1 -0.52963984 -0.80842775 -0.2567608 0.2756647 0.4798826
0 0.44583595 0 -0 -1 -2.3750695e-09 0.46340564 0.42812335
-0.28108427 0.44583595 0 0.11147174 -0.98439616 -0.13615471 0.46357277 0.47990465
0 1.4 -1 0 0.99551076 -0.094647914 0.303695 0.97263014
-0.17362198 0.99943817 -1.9306369 -0.5518912 0.73369074 -0.39637625 0.14149341 0.8974286
-0.17362198 1.4 -1 -0.5414787 0.8345644 -0.1015048 0.30788916 0.94197404
0 1.1796646 0 0 0.98059565 0.19604117 0.4887992 0.97263026
-0.7810843 0.5 1 -0.97418845 -0.21278225 -0.075370796 0.7023609 0.63705015
0 0.5 1 0 -0.6877192 0.7259768 0.6443073 0.42618614
-0.28108427 0.5 1 0.8216058 -0.5382032 0.18788637 0.6451071 0.47457516
-0.28108427 1 1 0.7937105 0.5658092 0.22334686 0.6961227 0.859674
-0.37270033 1.1682104 0.13432103 0.41981047 0.8424285 -0.3377473 0.55709165 0.8088641
-0.37270033 1.1682104 1 0.5129066 0.8432442 -0.1608292 0.7007523 0.8233497
-0.28108427 1 1 0.7937105 0.5658092 0.22334686 0.67948973 0.9094566
0 0.5 1 0 -0.6877192 0.7259768 0.7780291 0.9584884
0 1 1 0 0.6415476 0.76708317 0.68220824 0.96332407
-0.7810843 0.5 -0.59975624 -0.6907358 -0.5868722 -0.42245126 0.34725 0.5721096
-0.7810843 0.44583595 0 -0.049235635 -0.9862886 -0.15751396 0.45923147 0.5759311
-0.28108427 0.5 -1 -0.52963984 -0.80842775 -0.2567608 0.29058862 0.6370505
-0.36960787 0.91147643 -0.92913795 -0.7662744 -0.1520031 -0.6242744 0.31070644 0.7147834
-0.28108427 1 -1 -0.92308444 0.2935841 -0.24844195 0.28911656 0.7311009
-0.28108427 1 0 -0.6204949 0.7444943 -0.24640247 0.5227358 0.8333401
-0.28108427 1 -1 -0.92308444 0.2935841 -0.24844195 0.3291387 0.8274125
-0.36260098 0.3300041 0.13432103 0.39736298 -0.8822686 -0.2523978 0.49467522 0.50365317
-0.28108427 1 -1 -0.92308444 0.2935841 -0.24844195 0.30652666 0.8686147
-0.28108427 0.7635075 -1.7938288 -0.9834815 0.1309068 -0.12500978 0.1582745 0.8490371
-0.28108427 1.1796646 0 -0.711865 0.6904439 0.12858951 0.48724282 0.92791814
-0.28108427 0.46859416 -1.6228187 -0.71213615 -0.70194227 -0.011790252 0.177933 0.7910527
-0.28108427 0.5 -1 -0.52963984 -0.80842775 -0.2567608 0.29158673 0.7781266
0 0.46859416 -1.6228187 0 -0.9990256 0.044135623 0.15915279 0.42671746
0 0.5 -1 -0 -0.9999983 -0.001864266 0.27590775 0.42725682
-0.17345148 0.44531238 -2.2365396 -0.5339748 -0.7251042 -0.43485034 0.044016585 0.4586606
0 0.44531238 -2.2365396 -0 -0.8758038 -0.48266727 0.044166602 0.4261862
-0.17345148 0.44531238 -2.2365396 -0.5339748 -0.7251042 -0.43485034 0.06662945 0.8118336
-0.28108427 1 0 -0.6204949 0.7444943 -0.24640247 0.490923 0.8853676
-0.68946826 1.1682104 0.13432103 -0.43701515 0.8360073 -0.3318274 0.56147754 0.7631815
-0.22616068 0.44517446 1.3046974 0.4092093 -0.03322324 0.9118355 0.82942456 0.20133892
-0.32558614 0.23783141 1.3046974 0.34789643 -0.511461 0.78573257 0.82191485 0.23363797
-0.69956756 0.3300041 0.13432103 -0.39736292 -0.8822687 -0.25239784 0.48951307 0.55729735
-0.36260098 0.3300041 1 0.5351857 -0.82894546 -0.16256006 0.6437718 0.51062804
-0.69956756 0.3300041 1 -0.53518575 -0.82894546 -0.16256002 0.63721293 0.5754213
-0.8360079 0.44517446 1.3046974 -0.40920925 -0.033223756 0.91183555 0.81722677 0.31601223
-0.7810843 0.5 1 -0.97418845 -0.21278225 -0.075370796 0.76417315 0.32262996
-0.7810843 0.5 1 -0.97418845 -0.21278225 -0.075370796 0.6323077 0.6106171
-0.17345148 0.6904753 -2.3787012 -0.52884644 0.17697795 -0.83006036 0.052357856 0.8614484
0 0.99943817 -1.9306369 0 0.87514347 -0.48386344 0.13165972 0.9262866
0 0.44531238 -2.2365396 -0 -0.8758038 -0.48266727 0.036263168 0.80309886
0 0.6904753 -2.3787012 0 0.21902765 -0.9757187 0.021991584 0.85271364
-0.68946826 1.1682104 1 -0.5129066 0.8432442 -0.16082905 0.78084636 0.46022505
-0.8360079 1.0550216 1.3046974 -0.42399594 0.046199955 0.9044849 0.83136386 0.41429585
-0.7242643 1.2601869 1.3046974 -0.3294638 0.51305676 0.79260737 0.83974713 0.45156798
-0.33790427 1.2601869 1.3046974 0.32946387 0.513057 0.79260707 0.8593233 0.5199075
-0.37270033 1.1682104 1 0.5129066 0.8432442 -0.1608292 0.7929512 0.52495915
-0.37270033 1.1682104 1 0.5129066 0.8432442 -0.1608292 0.81726146 0.049455404
-0.22616068 1.0550216 1.3046974 0.42399532 0.046199683 0.9044853 0.86505616 0.101865456
-0.28108427 1 1 0.7937105 0.5658092 0.22334686 0.80440044 0.08791359
-0.28108427 0.5 1 0.8216058 -0.5382032 0.18788637 0.77578735 0.18320255
-0.7810843 1 1 -0.96573496 0.23542589 -0.10922789 0.7721414 0.4203362
-0.6549733 0.44105074 0.9238256 0.34862098 0.50734913 0.7880738 0.8886307 0.28970483
-0.7149141 0.566052 0.9238256 0.609364 0.11726642 0.784171 0.8923236 0.31695175
-0.40719524 0.44105074 0.9238256 -0.34862086 0.50734913 0.78807384 0.89056623 0.24100134
-0.64754707 1.0574 0.9238256 0.33212063 -0.51526797 0.79006 0.9124266 0.4186085
-0.41462147 1.0574 0.9238256 -0.3321206 -0.5152682 0.79005986 0.93828833 0.46326876
-0.41462147 1.0574 0.9238256 -0.3321206 -0.5152682 0.79005986 0.9457361 0.12440127
-0.34725443 0.9337117 0.9238256 -0.60947114 -0.13192181 0.78175545 0.9315725 0.15025984
-0.7149141 0.9337117 0.9238256 0.609471 -0.13192177 0.78175545 0.9072005 0.38959503
-0.34725443 0.566052 0.9238256 -0.60936403 0.117266394 0.78417087 0.9001725 0.21649888
-0.7149141 0.9337117 0.9238256 0.609471 -0.13192177 0.78175545 0.047140285 0.6213919
-0.6549733 0.44105074 0.9238256 0.34862098 0.50734913 0.7880738 0.05805455 0.53168607
-0.34725443 0.566052 0.9238256 -0.60936403 0.117266394 0.78417087 0.1140853 0.5544469
-1.5975951 0.32989454 0.29872745 0.136466 -0.99015635 -0.031106832 0.5436279 0.1793887
-2.414106 0.23505598 0.2727982 -0.7243724 -0.13091865 -0.676864 0.5399929 0.3297852
-1.5975951 0.367528 -0.163479 -0.48020855 -0.09493119 -0.8720021 0.4589356 0.17915171
-2.414106 0.23505598 1.1387693 -0.5891055 -0.09519824 0.8024289 0.6968305 0.32862332
-2.414106 0.21395314 0.5974549 -0.6436052 -0.7653567 -0.0011504743 0.59868187 0.32807583
-1.5975951 0.41956782 0.29872745 -0.18875486 0.98195136 -0.011960086 0.19522156 0.17969121
-2.414106 0.23505598 0.2727982 -0.7243724 -0.13091865 -0.676864 0.18956152 0.027284887
-2.414106 0.26423717 0.5974549 -0.7564801 0.6540153 -0.0013755751 0.24890316 0.028080758
-2.414106 0.23505598 1.1387693 -0.5891055 -0.09519824 0.8024289 0.34758964 0.026662406
-1.2757134 0.367528 1.3317946 0.2329781 -0.04008573 0.9716554 0.3845721 0.23500305
-2.414106 0.26423717 0.5974549 -0.7564801 0.6540153 -0.0013755751 0.5986664 0.33717898
-0.73527634 1.0693259 0.20640372 -0.8756428 0.48295832 -0.0009607827 0.570229 0.7456163
-0.7237567 1.1052557 0.9194981 -0.5353936 0.8027787 0.26248837 0.7576819 0.6842924
-1.5688164 1.5412182 1.4938041 -0.62469953 -0.28319904 0.72770095 0.7924772 0.85272527
-0.74679595 1.0629548 0.9194981 -0.9628162 0.0045194374 0.27011988 0.75040877 0.6859412
-0.74679595 1.0629548 0.9194981 -0.9628162 0.0045194374 0.27011988 0.97481275 0.68329746
-1.5688164 1.5412182 1.0570647 -0.7227992 0.37289837 -0.5818145 0.87749547 0.8287061
-0.73527634 1.0693259 0.20640372 -0.8756428 0.48295832 -0.0009607827 0.8791661 0.5954524
-0.7237567 1.1052557 0.9194981 -0.5353936 0.8027787 0.26248837 0.69062585 0.74814445
-0.7810843 0.44583595 0 -0.049235635 -0.9862886 -0.15751396 0.48811853 0.029330563
-0.7810843 0.5 -0.59975624 -0.6907358 -0.5868722 -0.42245126 0.37822187 0.02877706
-0.7810843 0.5 1 -0.97418845 -0.21278225 -0.075370796 0.67072517 0.026819136
-0.7810843 0.5748985 0 -0.7942148 0.60705334 -0.0266289 0.14148054 0.33127615
-1.5975951 0.367528 -0.163479 -0.48020855 -0.09493119 -0.8720021 0.11053695 0.17812262
-0.7810843 0.5 1 -0.97418845 -0.21278225 -0.075370796 0.3240291 0.3281382
-0.36960787 0.58852357 -0.92913795 -0.7662742 0.15200311 -0.6242746 0.69255203 0.3813
-0.36960787 0.91147643 -0.7396879 -0.7062219 -0.6213913 -0.33929867 0.7270482 0.4401045
-0.36960787 0.91147643 -0.92913795 -0.7662744 -0.1520031 -0.6242744 0.69255227 0.4401047
-0.69256073 0.58852357 -0.6706183 -0.30374005 0.49643162 -0.8132021 0.3894708 0.6552537
-0.36960787 0.58852357 -0.92913795 -0.7662742 0.15200311 -0.6242746 0.3116572 0.6540357
-0.7810843 0.5 -0.59975624 -0.6907358 -0.5868722 -0.42245126 0.41106066 0.6389362
-0.69256073 0.91147643 -0.6706183 -0.30374044 -0.4964318 -0.8132018 0.38851988 0.7160013
-0.69256073 0.58852357 -0.6706183 -0.30374005 0.49643162 -0.8132021 0.692111 0.5470641
-0.36960787 0.58852357 -0.7396879 -0.7062218 0.6213913 -0.3392987 0.727867 0.5976766
-0.36960787 0.58852357 -0.92913795 -0.7662742 0.15200311 -0.6242746 0.6933712 0.59767634
-0.69256073 0.91147643 -0.6706183 -0.30374044 -0.4964318 -0.8132018 0.69211125 0.48825967
-0.69256073 0.58852357 -0.48116827 0.36169556 0.5499183 -0.7528388 0.7266068 0.5470643
-0.69256073 0.91147643 -0.48116827 0.3616954 -0.5499183 -0.75283897 0.72660714 0.48825967
-0.36960787 0.91147643 -0.7396879 -0.7062219 -0.6213913 -0.33929867 0.049140334 0.7572514
-0.69256073 0.58852357 -0.48116827 0.36169556 0.5499183 -0.7528388 0.12446493 0.69844675
-0.69256073 0.91147643 -0.48116827 0.3616954 -0.5499183 -0.75283897 0.12446493 0.7572514
-1.5688164 1.5412182 1.0570647 -0.7227992 0.37289837 -0.5818145 0.8627007 0.83943534
-1.5566552 1.5635463 1.4938041 -0.085569486 0.6962309 0.7126995 0.79544145 0.84821653
0.74679595 1.0629548 0.9194981 0.96281606 0.0045195883 0.2701199 0.6905224 0.73970526
0.68946826 1.1682104 1 0.5129066 0.8432442 -0.16082905 0.70534486 0.7609484
0.7810843 1 1 0.96573496 0.23542589 -0.10922788 0.7045266 0.7265656
0.7365824 0.23783141 1.3046974 0.3478964 -0.51146185 0.7857321 0.81504387 0.2832765
0.36260098 0.3300041 1 -0.53518575 -0.82894546 -0.16256006 0.76772195 0.22103918
0.69956756 0.3300041 1 0.53518575 -0.82894546 -0.16256002 0.7647549 0.2864947
0.7810843 0.5748985 0 0.79421484 0.6070533 -0.026628887 0.5236545 0.6547907
0.7810843 1 -0.59975624 0.7062218 0.62139136 -0.33929843 0.40958846 0.7329864
0.7810843 1 0 0.8072229 0.5622209 -0.17971899 0.525107 0.73350215
0.28108427 0.5 -1 0.52963984 -0.8084279 -0.2567606 0.2756647 0.4798826
0.28108427 0.44583595 0 -0.11147175 -0.98439616 -0.13615471 0.46357277 0.47990465
0.17362198 0.99943817 -1.9306369 0.55189127 0.7336907 -0.39637622 0.14149341 0.8974286
0.17362198 1.4 -1 0.5414787 0.83456445 -0.1015048 0.30788916 0.94197404
0.28108427 1.1796646 0 0.7118651 0.69044393 0.12858954 0.48724282 0.92791814
0.28108427 0.5 1 -0.8216058 -0.5382032 0.18788637 0.6451071 0.47457516
0.28108427 1 1 -0.7937104 0.5658092 0.22334686 0.6961227 0.859674
0.37270033 1.1682104 0.13432103 -0.41981047 0.8424285 -0.3377473 0.55709165 0.8088641
0.28108427 1 0 0.6204949 0.7444944 -0.24640247 0.5227358 0.8333401
0.28108427 1 1 -0.7937104 0.5658092 0.22334686 0.67948973 0.9094566
0.7810843 0.5 -0.59975624 0.69073594 -0.5868721 -0.42245123 0.34725 0.5721096
0.7810843 0.44583595 0 0.049235646 -0.98628855 -0.15751396 0.45923147 0.5759311
0.28108427 1 -1 0.9230844 0.29358426 -0.248442 0.28911656 0.7311009
0.36960787 0.58852357 -0.92913795 0.76627463 0.1520024 -0.6242744 0.3116572 0.6540357
0.28108427 0.5 -1 0.52963984 -0.8084279 -0.2567606 0.29058862 0.6370505
0.36260098 0.3300041 0.13432103 -0.397363 -0.8822686 -0.2523978 0.49467522 0.50365317
0.28108427 1 -1 0.9230844 0.29358426 -0.248442 0.30652666 0.8686147
0.28108427 0.46859416 -1.6228187 0.71213615 -0.70194227 -0.011790254 0.177933 0.7910527
0.28108427 0.5 -1 0.52963984 -0.8084279 -0.2567606 0.29158673 0.7781266
0.17345148 0.44531238 -2.2365396 0.5339748 -0.7251042 -0.43485034 0.044016585 0.4586606
0.28108427 0.46859416 -1.6228187 0.71213615 -0.70194227 -0.011790254 0.15890966 0.47934324
0.17345148 0.44531238 -2.2365396 0.5339748 -0.7251042 -0.43485034 0.06662945 0.8118336
0.28108427 0.7635075 -1.7938288 0.9834815 0.1309068 -0.12500978 0.1582745 0.8490371
0.28108427 1 0 0.6204949 0.7444944 -0.24640247 0.490923 0.8853676
0.68946826 1.1682104 0.13432103 0.4370152 0.83600736 -0.33182743 0.56147754 0.7631815
0.22616068 0.44517446 1.3046974 -0.40920904 -0.03322323 0.9118356 0.82942456 0.20133892
0.28108427 0.5 1 -0.8216058 -0.5382032 0.18788637 0.77578735 0.18320255
0.36260098 0.3300041 1 -0.53518575 -0.82894546 -0.16256006 0.6437718 0.51062804
0.69956756 0.3300041 0.13432103 0.39736292 -0.8822687 -0.25239784 0.48951307 0.55729735
0.69956756 0.3300041 1 0.53518575 -0.82894546 -0.16256002 0.63721293 0.5754213
0.8360079 0.44517446 1.3046974 0.40920937 -0.03322371 0.9118355 0.81722677 0.31601223
0.7810843 0.5 1 0.9741883 -0.21278225 -0.075370766 0.76417315 0.32262996
0.7810843 0.5 1 0.9741883 -0.21278225 -0.075370766 0.6323077 0.6106171
0.17345148 0.6904753 -2.3787012 0.52884644 0.17697795 -0.83006036 0.052357856 0.8614484
0.68946826 1.1682104 1 0.5129066 0.8432442 -0.16082905 0.78084636 0.46022505
0.8360079 1.0550216 1.3046974 0.42399588 0.046200115 0.9044849 0.83136386 0.41429585
0.7810843 1 1 0.96573496 0.23542589 -0.10922788 0.7721414 0.4203362
0.33790427 1.2601869 1.3046974 -0.32946378 0.51305735 0.7926069 0.8593233 0.5199075
0.37270033 1.1682104 1 -0.5129066 0.8432442 -0.16082922 0.7929512 0.52495915
0.22616068 1.0550216 1.3046974 -0.42399532 0.046199888 0.9044852 0.86505616 0.101865456
0.37270033 1.1682104 1 -0.5129066 0.8432442 -0.16082922 0.81726146 0.049455404
0.28108427 1 1 -0.7937104 0.5658092 0.22334686 0.80440044 0.08791359
0.6549733 0.44105074 0.9238256 -0.34862095 0.50734913 0.7880738 0.8886307 0.28970483
0.40719524 0.44105074 0.9238256 0.34862086 0.50734913 0.78807384 0.89056623 0.24100134
0.32558614 0.23783141 1.3046974 -0.34789643 -0.51146084 0.7857327 0.82191485 0.23363797
0.64754707 1.0574 0.9238256 -0.33212066 -0.515268 0.79006004 0.9124266 0.4186085
0.7242643 1.2601869 1.3046974 0.32946378 0.51305676 0.7926073 0.83974713 0.45156798
0.41462147 1.0574 0.9238256 0.3321206 -0.5152681 0.79006 0.93828833 0.46326876
0.41462147 1.0574 0.9238256 0.3321206 -0.5152681 0.79006 0.9457361 0.12440127
0.33790427 1.2601869 1.3046974 -0.32946378 0.51305735 0.7926069 0.8835277 0.059470564
0.7149141 0.9337117 0.9238256 -0.609471 -0.13192168 0.78175545 0.9072005 0.38959503
0.34725443 0.9337117 0.9238256 0.60947114 -0.13192181 0.78175545 0.9315725 0.15025984
0.6549733 0.44105074 0.9238256 -0.34862095 0.50734913 0.7880738 0.05805455 0.53168607
0.7149141 0.9337117 0.9238256 -0.609471 -0.13192168 0.78175545 0.047140285 0.6213919
0.41462147 1.0574 0.9238256 0.3321206 -0.5152681 0.79006 0.101818845 0.6439136
2.414106 0.23505598 0.2727982 0.7243724 -0.13091865 -0.67686415 0.5399929 0.3297852
1.5975951 0.32989454 0.29872745 -0.13646601 -0.99015635 -0.031106846 0.5436279 0.1793887
1.5975951 0.367528 -0.163479 0.48020855 -0.0949311 -0.87200224 0.4589356 0.17915171
2.414106 0.23505598 1.1387693 0.58910555 -0.095198244 0.8024288 0.6968305 0.32862332
1.2757134 0.367528 1.3317946 -0.23297854 -0.040085737 0.97165537 0.7316419 0.11982672
1.5975951 0.41956782 0.29872745 0.18875489 0.98195136 -0.011960091 0.19522156 0.17969121
2.414106 0.23505598 0.2727982 0.7243724 -0.13091865 -0.67686415 0.18956152 0.027284887
1.5975951 0.367528 -0.163479 0.48020855 -0.0949311 -0.87200224 0.11053695 0.17812262
2.414106 0.23505598 1.1387693 0.58910555 -0.095198244 0.8024288 0.34758964 0.026662406
1.2757134 0.367528 1.3317946 -0.23297854 -0.040085737 0.97165537 0.3845721 0.23500305
2.414106 0.21395314 0.5974549 0.6436052 -0.7653567 -0.0011504798 0.59868187 0.32807583
2.414106 0.26423717 0.5974549 0.75648004 0.65401524 -0.001375575 0.5986664 0.33717898
0.73527634 1.0693259 0.20640372 0.87564296 0.48295814 -0.00096080545 0.570229 0.7456163
1.5688164 1.5412182 1.4938041 0.62469953 -0.28319955 0.72770077 0.7924772 0.85272527
0.7237567 1.1052557 0.9194981 0.5353936 0.8027786 0.26248837 0.7576819 0.6842924
0.74679595 1.0629548 0.9194981 0.96281606 0.0045195883 0.2701199 0.75040877 0.6859412
1.5688164 1.5412182 1.0570647 0.72279924 0.37289843 -0.58181447 0.87749547 0.8287061
0.74679595 1.0629548 0.9194981 0.96281606 0.0045195883 0.2701199 0.97481275 0.68329746
0.73527634 1.0693259 0.20640372 0.87564296 0.48295814 -0.00096080545 0.8791661 0.5954524
0.7237567 1.1052557 0.9194981 0.5353936 0.8027786 0.26248837 0.69062585 0.74814445
0.7810843 0.44583595 0 0.049235646 -0.98628855 -0.15751396 0.48811853 0.029330563
0.7810843 0.5 -0.59975624 0.69073594 -0.5868721 -0.42245123 0.37822187 0.02877706
0.7810843 0.5 1 0.9741883 -0.21278225 -0.075370766 0.67072517 0.026819136
0.7810843 0.5748985 0 0.79421484 0.6070533 -0.026628887 0.14148054 0.33127615
0.7810843 0.5 -0.59975624 0.69073594 -0.5868721 -0.42245123 0.031456303 0.32892036
0.7810843 0.5 1 0.9741883 -0.21278225 -0.075370766 0.3240291 0.3281382
0.36960787 0.91147643 -0.7396879 0.7062219 -0.6213913 -0.33929867 0.7270482 0.4401045
0.36960787 0.58852357 -0.92913795 0.76627463 0.1520024 -0.6242744 0.69255203 0.3813
0.36960787 0.91147643 -0.92913795 0.7662744 -0.1520023 -0.6242747 0.69255227 0.4401047
0.7810843 0.5 -0.59975624 0.69073594 -0.5868721 -0.42245123 0.41106066 0.6389362
0.69256073 0.58852357 -0.6706183 0.30373996 0.4964319 -0.81320196 0.3894708 0.6552537
0.36960787 0.91147643 -0.92913795 0.7662744 -0.1520023 -0.6242747 0.31070644 0.7147834
0.36960787 0.58852357 -0.7396879 0.7062218 0.6213913 -0.3392987 0.727867 0.5976766
0.69256073 0.58852357 -0.6706183 0.30373996 0.4964319 -0.81320196 0.692111 0.5470641
0.36960787 0.58852357 -0.92913795 0.76627463 0.1520024 -0.6242744 0.6933712 0.59767634
0.69256073 0.58852357 -0.48116827 -0.36169556 0.5499183 -0.7528388 0.7266068 0.5470643
0.69256073 0.91147643 -0.6706183 0.3037403 -0.49643174 -0.81320184 0.69211125 0.48825967
0.69256073 0.58852357 -0.48116827 -0.36169556 0.5499183 -0.7528388 0.12446493 0.69844675
0.36960787 0.91147643 -0.7396879 0.7062219 -0.6213913 -0.33929867 0.049140334 0.7572514
0.69256073 0.91147643 -0.48116827 -0.3616954 -0.5499183 -0.75283897 0.12446493 0.7572514
1.5688164 1.5412182 1.0570647 0.72279924 0.37289843 -0.58181447 0.8627007 0.83943534
0.73527634 1.0693259 0.20640372 0.87564296 0.48295814 -0.00096080545 0.8598218 0.5896577
1.5566552 1.5635463 1.4938041 0.08556951 0.6962307 0.71269965 0.79544145 0.84821653
-0.28108427 0.5 1 0.8216058 -0.5382032 0.18788637 0.77531064 0.9046209
-0.28108427 0.46859416 -1.6228187 -0.71213615 -0.70194227 -0.011790252 0.15890966 0.47934324
0 0.6904753 -2.3787012 0 0.21902765 -0.9757187 0.040911272 0.89036924
-0.33790427 1.2601869 1.3046974 0.32946387 0.513057 0.79260707 0.8835277 0.059470564
-0.34725443 0.9337117 0.9238256 -0.60947114 -0.13192181 0.78175545 0.1140853 0.6213919
-0.41462147 1.0574 0.9238256 -0.3321206 -0.5152682 0.79005986 0.101818845 0.6439136
-0.64754707 1.0574 0.9238256 0.33212063 -0.51526797 0.79006 0.059406742 0.6439136
-0.7149141 0.566052 0.9238256 0.609364 0.11726642 0.784171 0.047140285 0.5544468
-0.40719524 0.44105074 0.9238256 -0.34862086 0.50734913 0.78807384 0.103171036 0.53168607
-1.2757134 0.367528 1.3317946 0.2329781 -0.04008573 0.9716554 0.7316419 0.11982672
-1.5688164 1.5412182 1.4938041 -0.62469953 -0.28319904 0.72770095 0.9365707 0.88194215
-0.7810843 0.5 -0.59975624 -0.6907358 -0.5868722 -0.42245126 0.031456303 0.32892036
-0.36960787 0.58852357 -0.7396879 -0.7062218 0.6213913 -0.3392987 0.7270479 0.38129976
-0.36960787 0.58852357 -0.7396879 -0.7062218 0.6213913 -0.3392987 0.049140334 0.69844675
-0.73527634 1.0693259 0.20640372 -0.8756428 0.48295832 -0.0009607827 0.8598218 0.5896577
0.7810843 0.5 1 0.9741883 -0.21278225 -0.075370766 0.7023609 0.63705015
0.37270033 1.1682104 1 -0.5129066 0.8432442 -0.16082922 0.7007523 0.8233497
0.28108427 0.5 1 -0.8216058 -0.5382032 0.18788637 0.77531064 0.9046209
0.28108427 1 -1 0.9230844 0.29358426 -0.248442 0.3291387 0.8274125
0.7149141 0.566052 0.9238256 -0.60936403 0.117266424 0.784171 0.8923236 0.31695175
0.34725443 0.566052 0.9238256 0.60936403 0.11726645 0.78417087 0.9001725 0.21649888
0.34725443 0.9337117 0.9238256 0.60947114 -0.13192181 0.78175545 0.1140853 0.6213919
0.34725443 0.566052 0.9238256 0.60936403 0.11726645 0.78417087 0.1140853 0.5544469
0.40719524 0.44105074 0.9238256 0.34862086 0.50734913 0.78807384 0.103171036 0.53168607
0.7149141 0.566052 0.9238256 -0.60936403 0.117266424 0.784171 0.047140285 0.5544468
0.64754707 1.0574 0.9238256 -0.33212066 -0.515268 0.79006004 0.059406742 0.6439136
2.414106 0.26423717 0.5974549 0.75648004 0.65401524 -0.001375575 0.24890316 0.028080758
1.5688164 1.5412182 1.4938041 0.62469953 -0.28319955 0.72770077 0.9365707 0.88194215
0.36960787 0.58852357 -0.7396879 0.7062218 0.6213913 -0.3392987 0.7270479 0.38129976
0.69256073 0.91147643 -0.6706183 0.3037403 -0.49643174 -0.81320184 0.38851988 0.7160013
0.69256073 0.91147643 -0.48116827 -0.3616954 -0.5499183 -0.75283897 0.72660714 0.48825967
0.36960787 0.58852357 -0.7396879 0.7062218 0.6213913 -0.3392987 0.049140334 0.69844675
3 0 1 2
3 3 4 5
3 6 7 8
3 9 10 11
3 12 13 14
3 14 15 12
3 2 7 16
3 11 17 18
3 19 20 21
3 22 23 24
3 25 11 26
3 27 28 29
3 6 30 31
3 18 32 11
3 33 13 34
3 33 35 14
3 33 36 37
3 9 38 39
3 38 40 41
3 34 42 36
3 24 35 22
3 43 22 35
3 8 20 30
3 0 20 44
3 3 45 46
3 47 48 49
3 11 47 26
3 5 50 51
3 52 47 49
3 34 13 53
3 54 53 13
3 55 53 56
3 57 58 59
3 57 60 61
3 62 63 64
3 64 45 65
3 66 50 58
3 50 67 68
3 45 69 46
3 46 67 4
3 58 70 59
3 59 71 60
3 63 72 73
3 50 74 58
3 45 73 75
3 76 77 78
3 79 80 81
3 79 82 83
3 84 85 86
3 84 87 88
3 83 89 80
3 2 90 8
3 91 92 93
3 94 95 96
3 44 8 90
3 44 97 0
3 98 81 99
3 100 79 98
3 101 102 84
3 103 84 88
3 104 105 106
3 27 107 108
3 6 107 109
3 29 110 6
3 111 112 113
3 114 115 111
3 114 105 116
3 117 118 119
3 91 120 121
3 92 121 120
3 122 123 124
3 125 126 127
3 128 129 130
3 10 131 132
3 133 12 134
3 134 15 135
3 124 128 130
3 17 132 136
3 137 138 139
3 23 140 24
3 132 141 142
3 143 144 145
3 129 139 130
3 146 136 132
3 147 133 134
3 135 147 134
3 148 147 149
3 38 131 39
3 38 150 151
3 152 153 148
3 135 24 140
3 154 135 140
3 138 130 139
3 138 123 155
3 126 156 157
3 158 159 160
3 159 132 142
3 161 127 162
3 163 159 142
3 153 164 133
3 164 54 133
3 164 55 56
3 165 166 167
3 168 165 169
3 170 171 172
3 156 172 157
3 167 161 162
3 161 173 125
3 174 156 175
3 173 175 125
3 176 166 177
3 178 177 168
3 170 179 180
3 181 161 166
3 156 182 170
3 183 184 185
3 186 187 188
3 187 189 190
3 191 192 193
3 194 191 195
3 196 197 189
3 198 124 130
3 199 200 201
3 202 203 204
3 155 198 130
3 205 155 123
3 188 206 207
3 187 208 206
3 209 193 210
3 211 191 209
3 212 213 214
3 144 215 145
3 216 129 215
3 129 217 143
3 218 219 220
3 221 222 219
3 222 212 214
3 223 224 225
3 200 226 227
3 199 226 228
3 0 97 1
3 3 46 4
3 6 109 7
3 9 39 10
3 12 54 13
3 14 35 15
3 2 8 7
3 11 10 17
3 19 30 20
3 22 229 23
3 25 9 11
3 27 108 28
3 6 8 30
3 18 48 32
3 33 14 13
3 33 43 35
3 33 34 36
3 9 230 38
3 38 230 40
3 34 53 42
3 24 15 35
3 8 44 20
3 0 21 20
3 3 65 45
3 47 32 48
3 11 32 47
3 5 4 50
3 52 26 47
3 54 231 53
3 55 42 53
3 57 66 58
3 57 59 60
3 62 232 63
3 64 63 45
3 66 51 50
3 50 4 67
3 45 75 69
3 46 69 67
3 58 74 70
3 59 70 71
3 63 232 72
3 50 68 74
3 45 63 73
3 78 233 234
3 234 235 76
3 76 236 77
3 77 237 78
3 78 234 76
3 79 83 80
3 79 238 82
3 84 102 85
3 84 86 87
3 83 82 89
3 2 1 90
3 91 121 92
3 94 239 95
3 44 90 97
3 98 79 81
3 100 238 79
3 101 240 102
3 103 101 84
3 104 241 105
3 27 109 107
3 6 110 107
3 29 28 110
3 111 115 112
3 114 116 115
3 114 106 105
3 117 242 118
3 91 243 120
3 122 205 123
3 125 175 126
3 128 215 129
3 10 39 131
3 133 54 12
3 134 12 15
3 124 244 128
3 17 10 132
3 137 245 138
3 23 246 140
3 132 131 141
3 143 217 144
3 129 247 139
3 146 158 136
3 147 153 133
3 135 154 147
3 148 153 147
3 38 151 131
3 38 41 150
3 152 164 153
3 135 15 24
3 138 155 130
3 138 245 123
3 126 175 156
3 158 146 159
3 159 146 132
3 161 125 127
3 163 160 159
3 164 231 54
3 164 152 55
3 165 177 166
3 168 177 165
3 170 180 171
3 156 170 172
3 167 166 161
3 161 248 173
3 174 249 156
3 173 174 175
3 176 181 166
3 178 176 177
3 170 182 179
3 181 248 161
3 156 249 182
3 185 250 251
3 251 252 183
3 183 253 184
3 184 254 185
3 185 251 183
3 186 196 187
3 187 196 189
3 191 255 192
3 194 255 191
3 196 186 197
3 198 122 124
3 199 228 200
3 202 256 203
3 205 198 155
3 188 187 206
3 187 190 208
3 209 191 193
3 211 195 191
3 212 257 213
3 144 216 215
3 216 258 129
3 129 258 217
3 218 221 219
3 221 259 222
3 222 259 212
3 223 260 224
3 200 228 226
