ply
format ascii 1.0
comment VCGLIB generated
element vertex 7
property float x
property float y
property float z
property float nx
property float ny
property float nz
property float texture_u
property float texture_v
element face 10
property list uchar int vertex_indices
end_header
-0.5832187 -0.7098618 0.8629571 -0.4389436 -0.5232882 0.7304096 -0.5832187 -0.7098618
-0.6701403 0.8977529 0.3578322 -0.5379546 0.7933816 0.2848695 -0.6701403 0.8977529
0.3678878 0.6679345 0.7657912 0.3420202 0.5843225 0.7359276 0.3678878 0.6679345
0.1370773 -0.8682263 -0.8104187 0.2186465 -0.706957 -0.6726109 0.1370773 -0.8682263
1.124112 -0.1180775 0.3138185 0.919031 -0.2464796 0.3076198 1.124112 -0.1180775
0.6150777 0.7877001 -0.6452906 0.4414984 0.717761 -0.538422 0.6150777 0.7877001
-0.9011298 0.1725523 -0.7365109 -0.7877557 0.09941404 -0.6079127 -0.9011298 0.1725523
3 1 2 5 
3 3 6 5 
3 4 5 2 
3 4 3 5 
3 2 1 0 
3 0 3 4 
3 0 1 6 
3 4 2 0 
3 3 0 6 
3 6 1 5 
