ply
format ascii 1.0
comment Created in Blender version 4.0.2
element vertex 261
property float x
property float y
property float z
property float nx
property float ny
property float nz
property float s
property float t
element face 280
property list uchar uint vertex_indices
end_header
-0.68946826 -1 1.1682104 -0.5107307 -1.4338956e-07 0.85974073 0.70534486 0.7609484
-0.74679595 -0.91949815 1.0629548 -0.8809503 0.0051843193 0.47318044 0.6905224 0.73970526
-0.7810843 -1 0.99999994 -0.9689257 0.0020668248 0.24734323 0.7045266 0.7265656
-0.36260098 -1 0.33000407 0.5252695 0.30421126 -0.79469955 0.76772195 0.22103918
-0.7365824 -1.3046974 0.23783135 -0.34789643 -0.78573185 -0.5114622 0.81504387 0.2832765
-0.69956756 -1 0.33000407 -0.5252695 0.30421114 -0.79469955 0.7647549 0.2864947
-0.7810843 0.5997562 1 -0.70622194 0.33929852 0.62139124 0.40958846 0.7329864
-0.7810843 -2.512961e-08 0.5748985 -1 -0 0 0.5236545 0.6547907
-0.7810843 -4.371139e-08 1 -0.8072229 0.17971891 0.5622209 0.525107 0.73350215
-0.28108427 1 0.50000006 -0.009620387 0.01346857 -0.99986297 0.2756647 0.4798826
0 -1.9488109e-08 0.44583595 0 4.4898922e-08 -1 0.46340564 0.42812335
-0.28108427 -1.9488109e-08 0.44583595 0.11147175 0.13615476 -0.98439616 0.46357277 0.47990465
0 0.99999994 1.4 0 0.09464787 0.99551076 0.303695 0.97263014
-0.17362198 1.9306369 0.9994382 -0.5518912 0.39637622 0.73369074 0.14149341 0.8974286
-0.17362198 0.99999994 1.4 -0.54147863 0.10150476 0.83456445 0.30788916 0.94197404
0 -5.156478e-08 1.1796646 0 -0.19604127 0.98059565 0.4887992 0.97263026
-0.7810843 -1 0.49999997 -1 -0 0 0.7023609 0.63705015
0 -1 0.49999997 0 -0.05408474 -0.99853635 0.6443073 0.42618614
-0.28108427 -1 0.49999997 0.51812035 -0.03420966 -0.85462344 0.6451071 0.47457516
-0.28108427 -1 0.99999994 0.8781919 -2.0907526e-08 0.47830847 0.6961227 0.859674
-0.37270033 -0.13432108 1.1682104 0.41981035 0.33774734 0.84242857 0.55709165 0.8088641
-0.37270033 -1 1.1682104 0.5107306 -3.7580463e-08 0.8597408 0.7007523 0.8233497
-0.28108427 -1 0.99999994 -0.07356699 -0.76500463 0.6398093 0.67948973 0.9094566
0 -1 0.49999997 0 -1 -4.371139e-08 0.7780291 0.9584884
0 -1 0.99999994 0 -0.76708317 0.64154756 0.68220824 0.96332407
-0.7810843 0.59975624 0.5 -0.02990646 0.06514564 -0.99742746 0.34725 0.5721096
-0.7810843 -1.9488109e-08 0.44583595 -0.2296662 0.27672178 -0.9331016 0.45923147 0.5759311
-0.28108427 1 0.50000006 -0.62492746 0.7806828 2.4956879e-07 0.29058862 0.6370505
-0.36960787 0.9291379 0.9114765 -0.62492746 0.78068286 -3.9394794e-07 0.31070644 0.7147834
-0.28108427 0.99999994 1 -0.6249272 0.7806831 -1.813195e-07 0.28911656 0.7311009
-0.28108427 -4.371139e-08 1 0.27842873 0.30178002 0.91181487 0.5227358 0.8333401
-0.28108427 0.99999994 1 0 -4.3711385e-08 0.99999994 0.3291387 0.8274125
-0.36260098 -0.13432105 0.3300041 0.39736304 0.25239792 -0.8822686 0.49467522 0.50365317
-0.28108427 0.99999994 1 -0.9806896 0.057762053 0.18684572 0.30652666 0.8686147
-0.28108427 1.7938288 0.76350754 -0.9834815 0.12500979 0.13090684 0.1582745 0.8490371
-0.28108427 -5.156478e-08 1.1796646 -0.7118651 -0.12858959 0.690444 0.48724282 0.92791814
-0.28108427 1.6228187 0.46859422 -0.99768704 0.05880358 -0.034098174 0.177933 0.7910527
-0.28108427 1 0.50000006 -1 -0 0 0.29158673 0.7781266
0 1.6228187 0.46859422 0 -0.04413556 -0.9990256 0.15915279 0.42671746
0 1 0.50000006 0 0.0018643144 -0.9999983 0.27590775 0.42725682
-0.17345148 2.2365396 0.44531247 0 -0.037908133 -0.9992812 0.044016585 0.4586606
0 2.2365396 0.44531247 0 -0.037908144 -0.9992812 0.044166602 0.4261862
-0.17345148 2.2365396 0.44531247 -0.7144349 0.60529923 -0.35099223 0.06662945 0.8118336
-0.28108427 -4.371139e-08 1 -1 -0 0 0.490923 0.8853676
-0.68946826 -0.13432108 1.1682104 -0.43701527 0.33182728 0.8360074 0.56147754 0.7631815
-0.22616068 -1.3046974 0.4451744 0.40920925 -0.91183555 -0.0332225 0.82942456 0.20133892
-0.32558614 -1.3046974 0.23783135 0.34789675 -0.78573275 -0.51146054 0.82191485 0.23363797
-0.69956756 -0.13432105 0.3300041 -0.39736283 0.2523978 -0.8822687 0.48951307 0.55729735
-0.36260098 -1 0.33000407 0.53273803 3.6992084e-08 -0.8462803 0.6437718 0.51062804
-0.69956756 -1 0.33000407 -0.53273785 3.6992084e-08 -0.8462803 0.63721293 0.5754213
-0.8360079 -1.3046974 0.4451744 -0.40920863 -0.9118358 -0.033225212 0.81722677 0.31601223
-0.7810843 -1 0.49999997 -0.9577531 0.20831732 -0.19827461 0.76417315 0.32262996
-0.7810843 -1 0.49999997 -0.8950626 -0.003284517 -0.4459283 0.6323077 0.6106171
-0.17345148 2.3787012 0.6904754 -0.5288465 0.8300605 0.17697796 0.052357856 0.8614484
0 1.9306369 0.9994382 0 0.48386344 0.87514347 0.13165972 0.9262866
0 2.2365396 0.44531247 0 0.86508155 -0.50163126 0.036263168 0.80309886
0 2.3787012 0.6904754 0 0.86508155 -0.5016314 0.021991584 0.85271364
-0.68946826 -1 1.1682104 -0.50341916 0.30187494 0.80959284 0.78084636 0.46022505
-0.8360079 -1.3046974 1.0550216 -0.42399555 -0.9044851 0.04620011 0.83136386 0.41429585
-0.7242643 -1.3046974 1.2601869 -0.3294636 -0.79260725 0.513057 0.83974713 0.45156798
-0.33790427 -1.3046974 1.2601869 0 -0.8106759 0.58549505 0.8593233 0.5199075
-0.37270033 -1 1.1682104 0 0.28898212 0.95733446 0.7929512 0.52495915
-0.37270033 -1 1.1682104 0.85303 0.23766097 0.46460417 0.81726146 0.049455404
-0.22616068 -1.3046974 1.0550216 0.423995 -0.9044855 0.046198517 0.86505616 0.101865456
-0.28108427 -1 0.99999994 0.9519787 0.21156338 0.22130853 0.80440044 0.08791359
-0.28108427 -1 0.49999997 0.9577531 0.2083174 -0.19827461 0.77578735 0.18320255
-0.7810843 -1 0.99999994 -0.9519787 0.2115634 0.22130825 0.7721414 0.4203362
-0.6549733 -0.9238256 0.4410507 0.4938937 -0.489333 0.7187644 0.8886307 0.28970483
-0.7149141 -0.9238256 0.56605196 0.92030776 -0.34880897 0.17710422 0.8923236 0.31695175
-0.40719524 -0.9238256 0.4410507 -0.4938934 -0.4893329 0.7187646 0.89056623 0.24100134
-0.64754707 -0.9238257 1.0574 0.4733724 -0.48637095 -0.73441255 0.9124266 0.4186085
-0.41462147 -0.9238257 1.0574 0 -0.4699659 -0.8826845 0.93828833 0.46326876
-0.41462147 -0.9238257 1.0574 -0.8063122 -0.39623207 -0.43915924 0.9457361 0.12440127
-0.34725443 -0.9238257 0.93371165 -0.91419464 -0.3536832 -0.19787991 0.9315725 0.15025984
-0.7149141 -0.9238257 0.93371165 0.9141946 -0.3536834 -0.19787948 0.9072005 0.38959503
-0.34725443 -0.9238256 0.56605196 -0.9203078 -0.34880888 0.17710455 0.9001725 0.21649888
-0.7149141 -0.9238257 0.93371165 4.9972577e-08 -1 -4.371139e-08 0.047140285 0.6213919
-0.6549733 -0.9238256 0.4410507 4.8636107e-08 -1 -4.371139e-08 0.05805455 0.53168607
-0.34725443 -0.9238256 0.56605196 -4.8107953e-08 -1 -4.371139e-08 0.1140853 0.5544469
-1.5975951 -0.29872745 0.32989454 0.13646601 0.031106869 -0.99015623 0.5436279 0.1793887
-2.414106 -0.2727982 0.23505597 0.042679362 0.06889309 -0.9967107 0.5399929 0.3297852
-1.5975951 0.16347899 0.367528 0.11368831 0.082531765 -0.9900826 0.4589356 0.17915171
-2.414106 -1.1387693 0.23505594 0.080106735 -0.01742482 -0.996634 0.6968305 0.32862332
-2.414106 -0.5974549 0.21395311 -0.6436053 0.0011505021 -0.7653567 0.59868187 0.32807583
-1.5975951 -0.29872748 0.41956782 -0.1887549 0.011960031 0.98195136 0.19522156 0.17969121
-2.414106 -0.2727982 0.23505597 -0.21665403 0.09296278 0.9718121 0.18956152 0.027284887
-2.414106 -0.5974549 0.26423714 -0.18761441 0.0020658735 0.9822405 0.24890316 0.028080758
-2.414106 -1.1387693 0.23505594 -0.1470645 -0.07370881 0.9863767 0.34758964 0.026662406
-1.2757134 -1.3317946 0.36752793 -0.16171056 -0.09984156 0.9817746 0.3845721 0.23500305
-2.414106 -0.5974549 0.26423714 -1 -0 0 0.5986664 0.33717898
-0.73527634 -0.20640376 1.0693259 -0.87551314 -0.0082042385 0.48312464 0.570229 0.7456163
-0.7237567 -0.91949815 1.1052557 0.65208787 -0.48127788 0.5857928 0.7576819 0.6842924
-1.5688164 -1.4938042 1.541218 -0.42114726 -0.8775059 0.22938688 0.7924772 0.85272527
-0.74679595 -0.91949815 1.0629548 0.45410004 -0.8559336 -0.24732737 0.75040877 0.6859412
-0.74679595 -0.91949815 1.0629548 -0.5044589 0.012880779 -0.8633396 0.97481275 0.68329746
-1.5688164 -1.0570648 1.5412182 -0.5033901 0.0040244963 -0.86405 0.87749547 0.8287061
-0.73527634 -0.20640376 1.0693259 -0.5048102 0.015866317 -0.86308455 0.8791661 0.5954524
-0.7237567 -0.91949815 1.1052557 -0.87918305 0.00018954498 0.4764843 0.69062585 0.74814445
-0.7810843 -1.9488109e-08 0.44583595 0.1310525 0.03233272 -0.990848 0.48811853 0.029330563
-0.7810843 0.59975624 0.5 0.11280061 0.08937003 -0.9895903 0.37822187 0.02877706
-0.7810843 -1 0.49999997 0.20478362 0.0010092821 -0.97880673 0.67072517 0.026819136
-0.7810843 -2.512961e-08 0.5748985 -0.1990212 0.042946953 0.9790538 0.14148054 0.33127615
-1.5975951 0.16347899 0.367528 -0.22063829 0.111676306 0.9689412 0.11053695 0.17812262
-0.7810843 -1 0.49999997 -0.17741618 -0.09421393 0.97961587 0.3240291 0.3281382
-0.36960787 0.92913795 0.5885236 -0.99999994 -0 0 0.69255203 0.3813
-0.36960787 0.73968786 0.9114765 -0.573147 3.5819408e-08 -0.8194525 0.7270482 0.4401045
-0.36960787 0.9291379 0.9114765 -0.8686811 2.1653392e-08 -0.49537188 0.69255227 0.4401047
-0.69256073 0.6706183 0.58852357 -0.62492687 0.78068334 -1.3058775e-07 0.3894708 0.6552537
-0.36960787 0.92913795 0.5885236 -0.6249276 0.7806826 4.6219714e-07 0.3116572 0.6540357
-0.7810843 0.59975624 0.5 -0.8926262 0.4507976 -7.6358745e-08 0.41106066 0.6389362
-0.69256073 0.67061824 0.91147643 -0.62492746 0.7806829 1.988374e-07 0.38851988 0.7160013
-0.69256073 0.6706183 0.58852357 0.57314694 -3.581941e-08 0.8194526 0.692111 0.5470641
-0.36960787 0.7396879 0.5885236 0 -4.371139e-08 1 0.727867 0.5976766
-0.36960787 0.92913795 0.5885236 0 -4.371139e-08 1 0.6933712 0.59767634
-0.69256073 0.67061824 0.91147643 0.573147 3.5819408e-08 -0.8194525 0.69211125 0.48825967
-0.69256073 0.48116824 0.58852357 0.86868113 -2.1653392e-08 0.49537188 0.7266068 0.5470643
-0.69256073 0.48116824 0.91147643 0.868681 2.1653392e-08 -0.49537188 0.72660714 0.48825967
-0.36960787 0.73968786 0.9114765 -0.624927 0.7806832 3.4124746e-08 0.049140334 0.7572514
-0.69256073 0.48116824 0.58852357 -0.624927 0.7806832 3.4124746e-08 0.12446493 0.69844675
-0.69256073 0.48116824 0.91147643 -0.62492704 0.78068316 3.4124746e-08 0.12446493 0.7572514
-1.5688164 -1.0570648 1.5412182 0.4277476 0.0565262 0.902129 0.8627007 0.83943534
-1.5566552 -1.4938042 1.5635462 -0.085566185 -0.71269864 0.696232 0.79544145 0.84821653
0.74679595 -0.91949815 1.0629548 0.88095015 0.005184475 0.47318065 0.6905224 0.73970526
0.68946826 -1 1.1682104 0.5107308 -3.758046e-08 0.85974073 0.70534486 0.7609484
0.7810843 -1 0.99999994 0.9689257 0.0020669512 0.24734336 0.7045266 0.7265656
0.7365824 -1.3046974 0.23783135 0.34789643 -0.7857318 -0.5114622 0.81504387 0.2832765
0.36260098 -1 0.33000407 -0.5252695 0.30421126 -0.79469955 0.76772195 0.22103918
0.69956756 -1 0.33000407 0.52526957 0.3042111 -0.79469955 0.7647549 0.2864947
0.7810843 -2.512961e-08 0.5748985 1 0 0 0.5236545 0.6547907
0.7810843 0.5997562 1 0.7062221 0.3392984 0.62139124 0.40958846 0.7329864
0.7810843 -4.371139e-08 1 0.8072229 0.17971891 0.5622209 0.525107 0.73350215
0.28108427 1 0.50000006 0.009620387 0.01346857 -0.99986297 0.2756647 0.4798826
0.28108427 -1.9488109e-08 0.44583595 -0.11147174 0.13615474 -0.98439616 0.46357277 0.47990465
0.17362198 1.9306369 0.9994382 0.5518912 0.39637625 0.73369074 0.14149341 0.8974286
0.17362198 0.99999994 1.4 0.54147863 0.10150476 0.83456445 0.30788916 0.94197404
0.28108427 -5.156478e-08 1.1796646 0.7118651 -0.12858959 0.69044393 0.48724282 0.92791814
0.28108427 -1 0.49999997 -0.51812035 -0.03420966 -0.85462344 0.6451071 0.47457516
0.28108427 -1 0.99999994 -0.8781919 -2.0907526e-08 0.47830847 0.6961227 0.859674
0.37270033 -0.13432108 1.1682104 -0.41981035 0.33774728 0.8424287 0.55709165 0.8088641
0.28108427 -4.371139e-08 1 -0.27842867 0.3017799 0.91181487 0.5227358 0.8333401
0.28108427 -1 0.99999994 0.07356699 -0.76500463 0.6398093 0.67948973 0.9094566
0.7810843 0.59975624 0.5 0.029906463 0.06514564 -0.99742746 0.34725 0.5721096
0.7810843 -1.9488109e-08 0.44583595 0.2296662 0.27672178 -0.9331016 0.45923147 0.5759311
0.28108427 0.99999994 1 0.6249275 0.7806828 3.4124728e-08 0.28911656 0.7311009
0.36960787 0.92913795 0.5885236 0.6249271 0.78068316 4.1308986e-08 0.3116572 0.6540357
0.28108427 1 0.50000006 0.624927 0.7806832 3.4124746e-08 0.29058862 0.6370505
0.36260098 -0.13432105 0.3300041 -0.397363 0.25239787 -0.8822686 0.49467522 0.50365317
0.28108427 0.99999994 1 0.9806896 0.057762053 0.18684572 0.30652666 0.8686147
0.28108427 1.6228187 0.46859422 0.99768704 0.058803562 -0.03409819 0.177933 0.7910527
0.28108427 1 0.50000006 1 0 0 0.29158673 0.7781266
0.17345148 2.2365396 0.44531247 0 -0.037908133 -0.9992812 0.044016585 0.4586606
0.28108427 1.6228187 0.46859422 0 -0.044499513 -0.99900943 0.15890966 0.47934324
0.17345148 2.2365396 0.44531247 0.7144349 0.60529923 -0.35099223 0.06662945 0.8118336
0.28108427 1.7938288 0.76350754 0.9834815 0.12500978 0.13090684 0.1582745 0.8490371
0.28108427 -4.371139e-08 1 1 0 0 0.490923 0.8853676
0.68946826 -0.13432108 1.1682104 0.43701527 0.33182722 0.83600736 0.56147754 0.7631815
0.22616068 -1.3046974 0.4451744 -0.40920904 -0.9118356 -0.0332226 0.82942456 0.20133892
0.28108427 -1 0.49999997 -0.9577531 0.20831735 -0.19827461 0.77578735 0.18320255
0.36260098 -1 0.33000407 -0.53273803 3.6992084e-08 -0.8462803 0.6437718 0.51062804
0.69956756 -0.13432105 0.3300041 0.39736283 0.2523978 -0.8822687 0.48951307 0.55729735
0.69956756 -1 0.33000407 0.53273785 3.6992084e-08 -0.8462803 0.63721293 0.5754213
0.8360079 -1.3046974 0.4451744 0.40920857 -0.9118358 -0.03322521 0.81722677 0.31601223
0.7810843 -1 0.49999997 0.9577531 0.2083173 -0.19827455 0.76417315 0.32262996
0.7810843 -1 0.49999997 0.8950626 -0.003284517 -0.4459283 0.6323077 0.6106171
0.17345148 2.3787012 0.6904754 0.5288465 0.8300605 0.17697796 0.052357856 0.8614484
0.68946826 -1 1.1682104 0.50341916 0.30187494 0.80959284 0.78084636 0.46022505
0.8360079 -1.3046974 1.0550216 0.42399555 -0.90448517 0.046200376 0.83136386 0.41429585
0.7810843 -1 0.99999994 0.9519787 0.2115634 0.22130825 0.7721414 0.4203362
0.33790427 -1.3046974 1.2601869 0 -0.8106758 0.58549535 0.8593233 0.5199075
0.37270033 -1 1.1682104 0 0.2889822 0.95733446 0.7929512 0.52495915
0.22616068 -1.3046974 1.0550216 -0.42399517 -0.90448534 0.04619846 0.86505616 0.101865456
0.37270033 -1 1.1682104 -0.85303 0.23766111 0.4646042 0.81726146 0.049455404
0.28108427 -1 0.99999994 -0.95197874 0.21156345 0.2213086 0.80440044 0.08791359
0.6549733 -0.9238256 0.4410507 -0.4938937 -0.48933297 0.7187644 0.8886307 0.28970483
0.40719524 -0.9238256 0.4410507 0.49389353 -0.48933288 0.7187647 0.89056623 0.24100134
0.32558614 -1.3046974 0.23783135 -0.34789678 -0.78573275 -0.5114606 0.82191485 0.23363797
0.64754707 -0.9238257 1.0574 -0.47337252 -0.48637095 -0.7344125 0.9124266 0.4186085
0.7242643 -1.3046974 1.2601869 0.32946315 -0.79260707 0.5130574 0.83974713 0.45156798
0.41462147 -0.9238257 1.0574 0 -0.46996605 -0.8826844 0.93828833 0.46326876
0.41462147 -0.9238257 1.0574 0.8063122 -0.39623207 -0.43915924 0.9457361 0.12440127
0.33790427 -1.3046974 1.2601869 -0.6587949 -0.66124284 0.3588136 0.8835277 0.059470564
0.7149141 -0.9238257 0.93371165 -0.9141947 -0.3536833 -0.19787951 0.9072005 0.38959503
0.34725443 -0.9238257 0.93371165 0.91419464 -0.3536832 -0.19787991 0.9315725 0.15025984
0.6549733 -0.9238256 0.4410507 7.094492e-08 -1 -4.371139e-08 0.05805455 0.53168607
0.7149141 -0.9238257 0.93371165 -3.339702e-07 -1 -4.371139e-08 0.047140285 0.6213919
0.41462147 -0.9238257 1.0574 -7.2705376e-08 -1 -4.371139e-08 0.101818845 0.6439136
2.414106 -0.2727982 0.23505597 -0.042679347 0.06889309 -0.9967107 0.5399929 0.3297852
1.5975951 -0.29872745 0.32989454 -0.13646603 0.031106876 -0.99015623 0.5436279 0.1793887
1.5975951 0.16347899 0.367528 -0.113688335 0.08253177 -0.99008256 0.4589356 0.17915171
2.414106 -1.1387693 0.23505594 -0.080106735 -0.01742482 -0.996634 0.6968305 0.32862332
1.2757134 -1.3317946 0.36752793 -0.18044282 0.020398997 -0.9833739 0.7316419 0.11982672
1.5975951 -0.29872748 0.41956782 0.1887549 0.0119600305 0.98195136 0.19522156 0.17969121
2.414106 -0.2727982 0.23505597 0.21665403 0.09296278 0.9718121 0.18956152 0.027284887
1.5975951 0.16347899 0.367528 0.22063826 0.111676306 0.9689412 0.11053695 0.17812262
2.414106 -1.1387693 0.23505594 0.1470645 -0.07370882 0.9863767 0.34758964 0.026662406
1.2757134 -1.3317946 0.36752793 0.16171056 -0.099841565 0.9817746 0.3845721 0.23500305
2.414106 -0.5974549 0.21395311 0.6436053 0.0011505021 -0.7653567 0.59868187 0.32807583
2.414106 -0.5974549 0.26423714 1 0 0 0.5986664 0.33717898
0.73527634 -0.20640376 1.0693259 0.8755131 -0.008204248 0.48312476 0.570229 0.7456163
1.5688164 -1.4938042 1.541218 0.4211476 -0.8775057 0.22938704 0.7924772 0.85272527
0.7237567 -0.91949815 1.1052557 -0.6520878 -0.481278 0.5857926 0.7576819 0.6842924
0.74679595 -0.91949815 1.0629548 -0.45409977 -0.8559336 -0.24732774 0.75040877 0.6859412
1.5688164 -1.0570648 1.5412182 0.5033901 0.004024507 -0.86405 0.87749547 0.8287061
0.74679595 -0.91949815 1.0629548 0.5044589 0.012880814 -0.8633396 0.97481275 0.68329746
0.73527634 -0.20640376 1.0693259 0.5048102 0.015866362 -0.86308455 0.8791661 0.5954524
0.7237567 -0.91949815 1.1052557 0.87918323 0.00018954427 0.476484 0.69062585 0.74814445
0.7810843 -1.9488109e-08 0.44583595 -0.13105251 0.03233273 -0.990848 0.48811853 0.029330563
0.7810843 0.59975624 0.5 -0.11280063 0.08937004 -0.98959035 0.37822187 0.02877706
0.7810843 -1 0.49999997 -0.20478365 0.0010092856 -0.97880673 0.67072517 0.026819136
0.7810843 -2.512961e-08 0.5748985 0.1990212 0.042946953 0.9790537 0.14148054 0.33127615
0.7810843 0.59975624 0.5 0.22155681 0.12083931 0.96763134 0.031456303 0.32892036
0.7810843 -1 0.49999997 0.17741618 -0.09421393 0.97961587 0.3240291 0.3281382
0.36960787 0.73968786 0.9114765 0.573147 3.5819408e-08 -0.8194525 0.7270482 0.4401045
0.36960787 0.92913795 0.5885236 0.99999994 0 0 0.69255203 0.3813
0.36960787 0.9291379 0.9114765 0.8686811 2.1653392e-08 -0.49537188 0.69255227 0.4401047
0.7810843 0.59975624 0.5 0.89262635 0.45079732 5.68354e-08 0.41106066 0.6389362
0.69256073 0.6706183 0.58852357 0.6249272 0.78068304 1.4114286e-07 0.3894708 0.6552537
0.36960787 0.9291379 0.9114765 0.62492764 0.78068274 3.4124728e-08 0.31070644 0.7147834
0.36960787 0.7396879 0.5885236 0 -4.371139e-08 1 0.727867 0.5976766
0.69256073 0.6706183 0.58852357 -0.57314694 -3.581941e-08 0.8194526 0.692111 0.5470641
0.36960787 0.92913795 0.5885236 0 -4.371139e-08 1 0.6933712 0.59767634
0.69256073 0.48116824 0.58852357 -0.86868113 -2.1653392e-08 0.49537188 0.7266068 0.5470643
0.69256073 0.67061824 0.91147643 -0.573147 3.5819408e-08 -0.8194525 0.69211125 0.48825967
0.69256073 0.48116824 0.58852357 0.624927 0.7806832 3.4124746e-08 0.12446493 0.69844675
0.36960787 0.73968786 0.9114765 0.624927 0.7806832 3.4124746e-08 0.049140334 0.7572514
0.69256073 0.48116824 0.91147643 0.62492704 0.78068316 3.4124746e-08 0.12446493 0.7572514
1.5688164 -1.0570648 1.5412182 -0.4277476 0.0565262 0.902129 0.8627007 0.83943534
0.73527634 -0.20640376 1.0693259 -0.45113268 0.052177846 0.8909303 0.8598218 0.5896577
1.5566552 -1.4938042 1.5635462 0.08556665 -0.7126986 0.696232 0.79544145 0.84821653
-0.28108427 -1 0.49999997 0 -1 -4.371139e-08 0.77531064 0.9046209
-0.28108427 1.6228187 0.46859422 0 -0.044499513 -0.99900943 0.15890966 0.47934324
0 2.3787012 0.6904754 0 0.5676744 0.82325315 0.040911272 0.89036924
-0.33790427 -1.3046974 1.2601869 0.65879476 -0.661243 0.35881376 0.8835277 0.059470564
-0.34725443 -0.9238257 0.93371165 -6.0162574e-07 -1 -4.371139e-08 0.1140853 0.6213919
-0.41462147 -0.9238257 1.0574 -4.4569987e-08 -0.99999994 -4.3711385e-08 0.101818845 0.6439136
-0.64754707 -0.9238257 1.0574 0 -1 -4.371139e-08 0.059406742 0.6439136
-0.7149141 -0.9238256 0.56605196 6.761636e-07 -1 -4.371139e-08 0.047140285 0.5544468
-0.40719524 -0.9238256 0.4410507 0 -1 -4.371139e-08 0.103171036 0.53168607
-1.2757134 -1.3317946 0.36752793 0.18044281 0.020398995 -0.9833739 0.7316419 0.11982672
-1.5688164 -1.4938042 1.541218 -0.50289106 3.778193e-08 -0.86434984 0.9365707 0.88194215
-0.7810843 0.59975624 0.5 -0.22155681 0.12083931 0.96763134 0.031456303 0.32892036
-0.36960787 0.7396879 0.5885236 -1 -0 0 0.7270479 0.38129976
-0.36960787 0.7396879 0.5885236 -0.62492687 0.7806832 3.4124746e-08 0.049140334 0.69844675
-0.73527634 -0.20640376 1.0693259 0.45113268 0.052177846 0.8909303 0.8598218 0.5896577
0.7810843 -1 0.49999997 1 0 0 0.7023609 0.63705015
0.37270033 -1 1.1682104 -0.5107306 -3.7580463e-08 0.8597408 0.7007523 0.8233497
0.28108427 -1 0.49999997 0 -1 -4.371139e-08 0.77531064 0.9046209
0.28108427 0.99999994 1 0 -4.3711385e-08 0.99999994 0.3291387 0.8274125
0.7149141 -0.9238256 0.56605196 -0.92030776 -0.34880897 0.17710422 0.8923236 0.31695175
0.34725443 -0.9238256 0.56605196 0.9203078 -0.3488088 0.17710449 0.9001725 0.21649888
0.34725443 -0.9238257 0.93371165 0 -1 -4.371139e-08 0.1140853 0.6213919
0.34725443 -0.9238256 0.56605196 3.1535654e-07 -1 -4.371139e-08 0.1140853 0.5544469
0.40719524 -0.9238256 0.4410507 0 -1 -4.371139e-08 0.103171036 0.53168607
0.7149141 -0.9238256 0.56605196 0 -1 -4.371139e-08 0.047140285 0.5544468
0.64754707 -0.9238257 1.0574 0 -0.99999994 -4.3711385e-08 0.059406742 0.6439136
2.414106 -0.5974549 0.26423714 0.1876144 0.0020658735 0.9822405 0.24890316 0.028080758
1.5688164 -1.4938042 1.541218 0.50289106 3.778193e-08 -0.86434984 0.9365707 0.88194215
0.36960787 0.7396879 0.5885236 1 0 0 0.7270479 0.38129976
0.69256073 0.67061824 0.91147643 0.6249277 0.7806826 3.412472e-08 0.38851988 0.7160013
0.69256073 0.48116824 0.91147643 -0.868681 2.1653392e-08 -0.49537188 0.72660714 0.48825967
0.36960787 0.7396879 0.5885236 0.62492687 0.7806832 3.4124746e-08 0.049140334 0.69844675
3 0 1 2
3 3 4 5
3 6 7 8
3 9 10 11
3 12 13 14
3 14 15 12
3 2 7 16
3 11 17 18
3 19 20 21
3 22 23 24
3 25 11 26
3 27 28 29
3 6 30 31
3 18 32 11
3 33 13 34
3 33 35 14
3 33 36 37
3 9 38 39
3 38 40 41
3 34 42 36
3 24 35 22
3 43 22 35
3 8 20 30
3 0 20 44
3 3 45 46
3 47 48 49
3 11 47 26
3 5 50 51
3 52 47 49
3 34 13 53
3 54 53 13
3 55 53 56
3 57 58 59
3 57 60 61
3 62 63 64
3 64 45 65
3 66 50 58
3 50 67 68
3 45 69 46
3 46 67 4
3 58 70 59
3 59 71 60
3 63 72 73
3 50 74 58
3 45 73 75
3 76 77 78
3 79 80 81
3 79 82 83
3 84 85 86
3 84 87 88
3 83 89 80
3 2 90 8
3 91 92 93
3 94 95 96
3 44 8 90
3 44 97 0
3 98 81 99
3 100 79 98
3 101 102 84
3 103 84 88
3 104 105 106
3 27 107 108
3 6 107 109
3 29 110 6
3 111 112 113
3 114 115 111
3 114 105 116
3 117 118 119
3 91 120 121
3 92 121 120
3 122 123 124
3 125 126 127
3 128 129 130
3 10 131 132
3 133 12 134
3 134 15 135
3 124 128 130
3 17 132 136
3 137 138 139
3 23 140 24
3 132 141 142
3 143 144 145
3 129 139 130
3 146 136 132
3 147 133 134
3 135 147 134
3 148 147 149
3 38 131 39
3 38 150 151
3 152 153 148
3 135 24 140
3 154 135 140
3 138 130 139
3 138 123 155
3 126 156 157
3 158 159 160
3 159 132 142
3 161 127 162
3 163 159 142
3 153 164 133
3 164 54 133
3 164 55 56
3 165 166 167
3 168 165 169
3 170 171 172
3 156 172 157
3 167 161 162
3 161 173 125
3 174 156 175
3 173 175 125
3 176 166 177
3 178 177 168
3 170 179 180
3 181 161 166
3 156 182 170
3 183 184 185
3 186 187 188
3 187 189 190
3 191 192 193
3 194 191 195
3 196 197 189
3 198 124 130
3 199 200 201
3 202 203 204
3 155 198 130
3 205 155 123
3 188 206 207
3 187 208 206
3 209 193 210
3 211 191 209
3 212 213 214
3 144 215 145
3 216 129 215
3 129 217 143
3 218 219 220
3 221 222 219
3 222 212 214
3 223 224 225
3 200 226 227
3 199 226 228
3 0 97 1
3 3 46 4
3 6 109 7
3 9 39 10
3 12 54 13
3 14 35 15
3 2 8 7
3 11 10 17
3 19 30 20
3 22 229 23
3 25 9 11
3 27 108 28
3 6 8 30
3 18 48 32
3 33 14 13
3 33 43 35
3 33 34 36
3 9 230 38
3 38 230 40
3 34 53 42
3 24 15 35
3 8 44 20
3 0 21 20
3 3 65 45
3 47 32 48
3 11 32 47
3 5 4 50
3 52 26 47
3 54 231 53
3 55 42 53
3 57 66 58
3 57 59 60
3 62 232 63
3 64 63 45
3 66 51 50
3 50 4 67
3 45 75 69
3 46 69 67
3 58 74 70
3 59 70 71
3 63 232 72
3 50 68 74
3 45 63 73
3 78 233 234
3 234 235 76
3 76 236 77
3 77 237 78
3 78 234 76
3 79 83 80
3 79 238 82
3 84 102 85
3 84 86 87
3 83 82 89
3 2 1 90
3 91 121 92
3 94 239 95
3 44 90 97
3 98 79 81
3 100 238 79
3 101 240 102
3 103 101 84
3 104 241 105
3 27 109 107
3 6 110 107
3 29 28 110
3 111 115 112
3 114 116 115
3 114 106 105
3 117 242 118
3 91 243 120
3 122 205 123
3 125 175 126
3 128 215 129
3 10 39 131
3 133 54 12
3 134 12 15
3 124 244 128
3 17 10 132
3 137 245 138
3 23 246 140
3 132 131 141
3 143 217 144
3 129 247 139
3 146 158 136
3 147 153 133
3 135 154 147
3 148 153 147
3 38 151 131
3 38 41 150
3 152 164 153
3 135 15 24
3 138 155 130
3 138 245 123
3 126 175 156
3 158 146 159
3 159 146 132
3 161 125 127
3 163 160 159
3 164 231 54
3 164 152 55
3 165 177 166
3 168 177 165
3 170 180 171
3 156 170 172
3 167 166 161
3 161 248 173
3 174 249 156
3 173 174 175
3 176 181 166
3 178 176 177
3 170 182 179
3 181 248 161
3 156 249 182
3 185 250 251
3 251 252 183
3 183 253 184
3 184 254 185
3 185 251 183
3 186 196 187
3 187 196 189
3 191 255 192
3 194 255 191
3 196 186 197
3 198 122 124
3 199 228 200
3 202 256 203
3 205 198 155
3 188 187 206
3 187 190 208
3 209 191 193
3 211 195 191
3 212 257 213
3 144 216 215
3 216 258 129
3 129 258 217
3 218 221 219
3 221 259 222
3 222 259 212
3 223 260 224
3 200 228 226
